<svg width="30" height="30" viewBox="0 0 30 30" fill="none" xmlns="http://www.w3.org/2000/svg">
<g id="Property 1=Select">
<path id="Vector" d="M25.3846 0H4.61538C3.39172 0.00133619 2.21855 0.488028 1.35329 1.35329C0.488028 2.21855 0.00133619 3.39172 0 4.61538V25.3846C0.00133619 26.6083 0.488028 27.7814 1.35329 28.6467C2.21855 29.512 3.39172 29.9987 4.61538 30H25.3846C26.6083 29.9987 27.7814 29.512 28.6467 28.6467C29.512 27.7814 29.9987 26.6083 30 25.3846V4.61538C29.9987 3.39172 29.512 2.21855 28.6467 1.35329C27.7814 0.488028 26.6083 0.00133619 25.3846 0ZM22.8065 9.97284L13.1142 21.5113C13.0079 21.6379 12.8756 21.7402 12.7263 21.8113C12.577 21.8823 12.4141 21.9205 12.2488 21.9231H12.2293C12.0676 21.923 11.9077 21.889 11.76 21.8231C11.6123 21.7573 11.48 21.6611 11.3719 21.5409L7.21803 16.9255C7.11254 16.8136 7.03047 16.6817 6.97666 16.5377C6.92285 16.3936 6.89838 16.2403 6.90469 16.0866C6.911 15.933 6.94795 15.7821 7.01339 15.643C7.07882 15.5038 7.17142 15.3791 7.28572 15.2763C7.40003 15.1734 7.53375 15.0944 7.67902 15.044C7.82429 14.9935 7.97817 14.9726 8.13163 14.9825C8.2851 14.9923 8.43504 15.0328 8.57264 15.1014C8.71025 15.1701 8.83275 15.2655 8.93293 15.3822L12.199 19.0111L21.0397 8.4887C21.238 8.25943 21.5185 8.11741 21.8207 8.09333C22.1229 8.06925 22.4224 8.16505 22.6545 8.36002C22.8866 8.555 23.0327 8.83348 23.0611 9.13527C23.0896 9.43707 22.9981 9.73793 22.8065 9.97284Z" fill="#3E3E3E"/>
</g>
</svg>
