<svg width="25" height="24" viewBox="0 0 25 24" fill="none" xmlns="http://www.w3.org/2000/svg">
<g id="mdi:eye-outline">
<path id="Vector" d="M12.626 9C13.4216 9 14.1847 9.31607 14.7473 9.87868C15.3099 10.4413 15.626 11.2044 15.626 12C15.626 12.7956 15.3099 13.5587 14.7473 14.1213C14.1847 14.6839 13.4216 15 12.626 15C11.8303 15 11.0673 14.6839 10.5047 14.1213C9.94205 13.5587 9.62598 12.7956 9.62598 12C9.62598 11.2044 9.94205 10.4413 10.5047 9.87868C11.0673 9.31607 11.8303 9 12.626 9ZM12.626 4.5C17.626 4.5 21.896 7.61 23.626 12C21.896 16.39 17.626 19.5 12.626 19.5C7.62598 19.5 3.35598 16.39 1.62598 12C3.35598 7.61 7.62598 4.5 12.626 4.5ZM3.80598 12C4.61423 13.6503 5.86928 15.0407 7.42846 16.0133C8.98763 16.9858 10.7884 17.5013 12.626 17.5013C14.4636 17.5013 16.2643 16.9858 17.8235 16.0133C19.3827 15.0407 20.6377 13.6503 21.446 12C20.6377 10.3497 19.3827 8.95925 17.8235 7.98675C16.2643 7.01424 14.4636 6.49868 12.626 6.49868C10.7884 6.49868 8.98763 7.01424 7.42846 7.98675C5.86928 8.95925 4.61423 10.3497 3.80598 12Z" fill="#3E3E3E"/>
</g>
</svg>
