<svg width="24" height="25" viewBox="0 0 24 25" fill="none" xmlns="http://www.w3.org/2000/svg">
<g id="Vector">
<path id="Vector_2" d="M22.3777 18.116L20.047 15.7853C19.6252 15.3637 19.0969 15.0645 18.5184 14.9196C17.9399 14.7747 17.333 14.7896 16.7622 14.9626C16.1915 15.1356 15.6785 15.4602 15.2778 15.9019C14.8771 16.3436 14.6038 16.8858 14.487 17.4706C10.6437 16.752 6.90572 13.0293 6.67305 9.70196C7.32644 9.58177 7.92775 9.26553 8.39705 8.79529C9.01495 8.17731 9.36208 7.3392 9.36208 6.46529C9.36208 5.59139 9.01495 4.75328 8.39705 4.13529L6.06705 1.80463C5.44907 1.18673 4.61095 0.8396 3.73705 0.8396C2.86315 0.8396 2.02503 1.18673 1.40705 1.80463C-5.58362 8.79529 15.387 29.766 22.3777 22.7753C22.9952 22.1573 23.3421 21.3193 23.3421 20.4456C23.3421 19.5719 22.9952 18.734 22.3777 18.116Z" fill="#3E3E3E"/>
</g>
</svg>
