<svg xmlns="http://www.w3.org/2000/svg" width="179" height="211" viewBox="0 0 179 211" fill="none">
  <path fill-rule="evenodd" clip-rule="evenodd" d="M57.6813 199.282C98.3974 141.846 44.5938 167.753 52.2848 202.183C52.4903 203.102 57.1421 200.043 57.6813 199.282Z" fill="#52362A"/>
  <path fill-rule="evenodd" clip-rule="evenodd" d="M123.582 195.822C75.6957 144.146 132.432 162.867 129.312 197.999C129.229 198.937 124.216 196.506 123.582 195.822Z" fill="#52362A"/>
  <path fill-rule="evenodd" clip-rule="evenodd" d="M65.0363 80.0338C66.53 96.2447 41.7823 128.91 46.0267 153.037C48.0265 164.404 58.4716 171.338 69.4722 177.649C111.277 201.632 141.588 154.457 128.351 122.61C108.088 73.8608 146.815 93.786 65.0363 80.0338Z" fill="#654C33"/>
  <path fill-rule="evenodd" clip-rule="evenodd" d="M112.914 86.2982C115.54 87.126 136.258 77.4598 160.561 110.386C172.982 127.215 186.014 136.965 174.62 156.627C170.401 163.907 130.85 130.163 130.246 128.391C127.927 121.582 111.528 85.8616 112.914 86.2982Z" fill="#654C33"/>
  <path fill-rule="evenodd" clip-rule="evenodd" d="M62.3709 87.5205C59.1331 86.5447 55.1674 84.0246 50.9004 86.2256C29.1593 97.4401 -1.76317 147.213 0.0786057 167.191C2.19775 190.173 45.3713 159.873 46.9522 140.311C47.3518 135.365 66.8246 74.9102 62.3709 87.5205Z" fill="#654C33"/>
  <path fill-rule="evenodd" clip-rule="evenodd" d="M40.2921 47.5314C11.0176 23.3199 37.5347 -0.194985 49.8101 0.771736C59.8607 1.5631 69.7541 9.06694 68.8808 9.88434C68.5588 10.1863 46.6279 48.9486 40.2921 47.5314Z" fill="#654C33"/>
  <path fill-rule="evenodd" clip-rule="evenodd" d="M59.6437 13.3807L44.7706 36.4365C23.0623 22.0976 46.4448 0.450747 59.6437 13.3807Z" fill="#896745"/>
  <path fill-rule="evenodd" clip-rule="evenodd" d="M138.086 49.1774L116.309 8.39598C119.782 5.71084 123.695 5.22622 126.181 4.874C144.803 2.23636 159.13 16.1669 151.683 37.7976C149.405 44.4128 144.475 47.7877 138.086 49.1774Z" fill="#654C33"/>
  <path fill-rule="evenodd" clip-rule="evenodd" d="M137.301 37.8024L126.07 15.4898C144.617 6.83805 154.423 34.8151 137.301 37.8024Z" fill="#896745"/>
  <path fill-rule="evenodd" clip-rule="evenodd" d="M80.8735 2.87626C108.758 -3.18937 130.974 11.2106 136.641 36.9907C142.308 62.771 129.03 86.1997 101.145 92.2651C73.2611 98.3307 42.6281 83.7147 40.3952 56.5682C38.162 29.4217 52.9889 8.94189 80.8735 2.87626Z" fill="#654C33"/>
  <path d="M73.782 48.5274C75.7965 48.0892 77.0461 45.989 76.5729 43.8366C76.0998 41.6841 74.0831 40.2945 72.0685 40.7327C70.054 41.1709 68.8045 43.271 69.2776 45.4235C69.7508 47.5759 71.7675 48.9656 73.782 48.5274Z" fill="#1A1A1A"/>
  <path d="M104.656 52.0597C106.671 51.6215 107.92 49.5214 107.447 47.3689C106.974 45.2165 104.957 43.8268 102.943 44.265C100.928 44.7032 99.6787 46.8034 100.152 48.9558C100.625 51.1083 102.642 52.4979 104.656 52.0597Z" fill="#1A1A1A"/>
  <path fill-rule="evenodd" clip-rule="evenodd" d="M85.6427 44.8372C52.1474 46.856 58.9793 98.2436 100.21 82.4294C111.286 78.1812 118.323 48.6851 85.6427 44.8372Z" fill="#896745"/>
  <path d="M74.077 45.8435C74.8151 45.683 75.2753 44.9245 75.105 44.1495C74.9346 43.3745 74.1981 42.8764 73.46 43.0369C72.7219 43.1975 72.2616 43.9559 72.432 44.731C72.6024 45.506 73.3389 46.0041 74.077 45.8435Z" fill="white"/>
  <path d="M102.942 48.9417C103.68 48.7811 104.141 48.0227 103.97 47.2477C103.8 46.4726 103.063 45.9745 102.325 46.1351C101.587 46.2956 101.127 47.0541 101.297 47.8291C101.468 48.6041 102.204 49.1023 102.942 48.9417Z" fill="white"/>
  <path fill-rule="evenodd" clip-rule="evenodd" d="M86.0176 93.8708C89.3679 94.6154 103.083 83.0749 110.774 85.1339C119.84 87.5613 117.84 113.918 113.083 119.279C107.835 125.193 101.644 119.682 95.7611 114.4C92.6603 111.616 85.4598 104.443 85.0745 100.267C84.9752 99.1875 85.6574 93.7907 86.0176 93.8708Z" fill="#6666CC"/>
  <path fill-rule="evenodd" clip-rule="evenodd" d="M80.1305 100.436C83.3891 101.529 66.9943 114.006 64.4293 115.361C54.9159 120.384 57.2863 118.25 52.3718 111.665C50.0376 108.537 48.7119 87.3005 52.2583 82.9071C53.8054 80.9906 55.0737 77.6566 57.2309 77.5699C66.5215 77.1962 80.2258 93.2002 80.2989 93.9951C80.4356 95.478 80.5064 100.562 80.1305 100.436Z" fill="#6666CC"/>
  <path fill-rule="evenodd" clip-rule="evenodd" d="M79.7575 92.5925C82.8667 92.6261 84.9127 92.6021 85.503 93.1964C87.6458 95.3542 85.5701 98.8921 84.3056 100.912C83.7385 101.818 81.2205 102.018 80.1304 100.436C79.7989 99.9549 79.188 92.5865 79.7575 92.5925Z" fill="#6666CC"/>
  <path fill-rule="evenodd" clip-rule="evenodd" d="M56 90.9971C56 90.9971 57.1016 88.0913 58.3896 86.6173C64.152 80.0227 79 95.9609 79 95.9609L56 90.9971Z" fill="white"/>
  <path fill-rule="evenodd" clip-rule="evenodd" d="M60.1388 107.572C65.2761 113 80 99.94 80 99.94L58 103.279C58 103.279 58.7694 106.126 60.1388 107.572Z" fill="white"/>
  <path fill-rule="evenodd" clip-rule="evenodd" d="M108.683 97.9505L88 97.4186C88 97.4186 105.096 88.7061 108.387 93.3397C109.565 94.9973 108.683 97.9505 108.683 97.9505Z" fill="white"/>
  <path fill-rule="evenodd" clip-rule="evenodd" d="M103 110.385C96.5773 114.245 87 98.9453 87 98.9453L106 106.348C106 106.348 105.159 109.088 103 110.385Z" fill="white"/>
  <path fill-rule="evenodd" clip-rule="evenodd" d="M82.1326 101.583L82.681 92.6379L85.5029 93.1963C85.5029 93.1963 86.3207 94.7702 86.4163 95.8683C86.6014 97.9936 84.3056 100.911 84.3056 100.911L82.1326 101.583Z" fill="#4747FF"/>
  <path d="M39.0609 208.154C53.2729 206.857 63.5133 191.918 61.9336 174.787C60.3539 157.655 47.5522 144.819 33.3402 146.116C19.1282 147.412 8.8878 162.351 10.4675 179.483C12.0472 196.614 24.8489 209.451 39.0609 208.154Z" fill="#654C33"/>
  <path d="M37.9602 202.379C48.4178 201.425 55.8804 189.646 54.6285 176.069C53.3766 162.493 43.8842 152.26 33.4266 153.215C22.969 154.169 15.5063 165.948 16.7583 179.525C18.0102 193.101 27.5026 203.334 37.9602 202.379Z" fill="#FFEAD5"/>
  <path d="M35.9025 194.552C42.7317 194.015 47.6051 187.387 46.7876 179.748C45.97 172.109 39.7711 166.352 32.9418 166.889C26.1126 167.426 21.2392 174.053 22.0567 181.692C22.8743 189.331 29.0732 195.089 35.9025 194.552Z" fill="white"/>
  <path d="M138.408 201.6C152.434 204.221 166.393 192.639 169.585 175.731C172.778 158.824 163.995 142.993 149.969 140.372C135.942 137.751 121.984 149.333 118.791 166.241C115.599 183.149 124.382 198.98 138.408 201.6Z" fill="#654C33"/>
  <path d="M141.215 196.804C151.609 198.292 161.618 188.559 163.571 175.065C165.523 161.57 158.679 149.424 148.285 147.936C137.891 146.448 127.882 156.181 125.929 169.675C123.977 183.17 130.82 195.316 141.215 196.804Z" fill="#FFEAD5"/>
  <path d="M139.206 189.474C145.8 191.322 152.679 186.782 154.57 179.334C156.462 171.886 152.65 164.35 146.056 162.502C139.463 160.653 132.584 165.193 130.692 172.641C128.801 180.089 132.612 187.625 139.206 189.474Z" fill="white"/>
  <path fill-rule="evenodd" clip-rule="evenodd" d="M52.8526 115.648L53.668 114.063L55.4439 116.866L50.7723 154.289L44.9971 148.978L52.8526 115.648Z" fill="#52362A"/>
  <path fill-rule="evenodd" clip-rule="evenodd" d="M86.4989 69.2616C79.2169 63.0813 72.1744 54.8887 80.2235 52.2965C82.8466 51.4518 88.2226 51.1019 94.3966 52.9525C105.6 56.3105 86.5687 69.3208 86.4989 69.2616Z" fill="#333300"/>
</svg>