<svg width="223" height="234" viewBox="0 0 223 234" fill="none" xmlns="http://www.w3.org/2000/svg">
<g id="Group">
<path id="Vector" fill-rule="evenodd" clip-rule="evenodd" d="M171.009 97.0519C195.414 111.62 243.51 134.943 212.183 174.703C200.099 190.039 182.017 181.41 195.787 200.644C203.052 210.792 104.2 215.435 91.4973 227.83C71.7676 247.081 27.1965 211.515 83.4843 198.847C102.118 194.654 116.798 182.647 119.085 177.092C119.164 176.899 111.225 163.829 102.443 174.703C102.004 175.246 77.8846 191.976 55.7988 200.312C36.8372 207.469 25.2963 214.087 15.403 196.16C14.6616 194.816 16.2109 189.473 20.8395 186.93C24.9555 184.668 34.563 186.163 39.9971 183.263C59.2116 173.006 80.2941 161.557 58.1802 168.743C57.5048 168.963 -15.8957 190.052 3.15603 164.489C3.62006 163.866 34.4202 149.226 40.8423 143.477C52.4863 133.053 70.478 106.105 78.9441 101.091C81.3308 99.6777 86.0355 90.8184 88.6089 90.4448C105.474 87.9941 124.146 112.333 149.455 100.302C157.246 96.5984 152.549 92.0863 161.326 92.0863L167.64 94.2293L171.009 97.0519Z" fill="#2F2116"/>
<path id="Vector_2" fill-rule="evenodd" clip-rule="evenodd" d="M152.853 47.8181C142.763 45.5948 129.217 39.3828 126.415 34.5708C124.154 30.6894 124.423 24.8927 123.224 20.7217C119.605 8.13123 115.461 -0.449609 112.007 0.745145C111.087 1.06324 110.981 0.940084 109.45 2.96737C101.992 12.8399 101.297 21.2811 99.1987 28.8615C98.5909 31.0578 97.1496 32.6095 96.1525 34.6909C95.1935 36.6931 94.4881 41.061 93.14 43.1799C91.7603 45.3479 89.7219 45.2683 87.3722 47.3556C86.2429 48.3585 81.7024 56.7833 79.4777 64.1548C77.2327 71.5923 79.579 76.2331 79.6722 80.01C80.0332 94.6294 95.6728 107.412 110.839 111.685C132.936 117.91 135.692 117.828 156.58 106.118C160.703 103.806 159.08 99.9078 162.295 97.6808C166.601 94.6976 167.058 89.1346 169.639 83.5298C171.041 80.4868 173.954 76.3702 176.424 75.0769C176.941 69.0833 211.469 21.261 169.633 41.1872C167.966 41.9815 155.783 47.6749 152.853 47.8181Z" fill="#2F2116"/>
<path id="Vector_3" fill-rule="evenodd" clip-rule="evenodd" d="M106.251 64.4618C101.547 64.0946 93.4097 65.2725 95.4419 55.2987C95.7075 53.9944 97.3837 52.4416 98.6082 51.4561C101.727 48.9459 108.169 49.5835 109.221 55.8994C109.676 58.6344 108.04 63.2514 106.251 64.4618Z" fill="white"/>
<path id="Vector_4" fill-rule="evenodd" clip-rule="evenodd" d="M119.573 75.0501C124.09 74.5513 125.574 70.7682 128.541 68.5102C131.189 66.4958 135.596 66.0098 139.157 69.0855C140.698 70.4166 140.92 72.7795 143.029 75.6561C144.564 77.7496 132.569 87.4386 125.111 75.9636C124.198 74.5585 120.855 75.0953 119.573 75.0501Z" fill="white"/>
<path id="Vector_5" fill-rule="evenodd" clip-rule="evenodd" d="M106.184 64.4186L104.796 64.2929C93.747 65.0774 95.4771 55.9833 97.7456 53.4502C100.264 50.6387 105.752 49.0382 108.899 55.8797C110.65 59.6876 106.129 64.4133 106.184 64.4186Z" fill="#6A8153"/>
<path id="Vector_6" fill-rule="evenodd" clip-rule="evenodd" d="M101.217 54.0476C107.521 51.2123 109.981 57.8784 106.022 60.9217C101.099 64.7064 96.6514 59.5623 99.3736 55.7276C100.105 54.6974 101.112 54.0948 101.217 54.0476Z" fill="#1A1A1A"/>
<path id="Vector_7" fill-rule="evenodd" clip-rule="evenodd" d="M99.0775 60.2302C98.6952 59.3159 98.566 58.6354 98.7319 57.0104C99.1836 55.7395 99.8338 55.1645 100.654 54.422C101.546 54.7158 102.438 55.0093 103.33 55.3031C102.683 57.7284 102.447 58.6499 102.005 60.3232L99.0775 60.2302Z" fill="white"/>
<path id="Vector_8" fill-rule="evenodd" clip-rule="evenodd" d="M98.1893 74.1306C99.8105 73.4542 100.238 73.3624 101.516 73.7908C104.429 74.768 103.57 75.9641 104.342 75.9864C110.515 76.1657 113.03 83.4471 108.982 81.3899C103.624 78.6675 105.846 83.1301 104.053 84.0138C100.415 85.807 102.237 85.2549 100.812 85.8858C100.776 85.902 98.7311 82.2713 100.408 80.5166C102.377 78.4555 100.126 76.3855 98.506 76.2945C98.2401 76.2797 98.1862 74.1318 98.1893 74.1306Z" fill="#E8B09F"/>
<path id="Vector_9" fill-rule="evenodd" clip-rule="evenodd" d="M124.945 74.5682L125.767 75.9107C131.414 85.3914 140.717 80.5526 141.516 77.2549C142.404 73.5943 139.936 66.1242 130.726 67.9515C126.598 68.7704 124.916 74.521 124.945 74.5682Z" fill="#6A8153"/>
<path id="Vector_10" fill-rule="evenodd" clip-rule="evenodd" d="M138.878 73.7995C137.787 67.4068 129.711 69.0368 129.452 73.6621C129.106 79.8412 136.293 80.1716 138.351 76.0121C138.911 74.8808 138.898 73.9118 138.878 73.7995Z" fill="#1A1A1A"/>
<path id="Vector_11" fill-rule="evenodd" clip-rule="evenodd" d="M131.232 70.567C134.65 72.1152 133.319 70.5298 132.131 75.2872C131.682 77.0853 129.993 76.0541 129.902 75.9572C129.315 75.3311 129.349 71.3883 131.232 70.567C131.314 70.5315 131.111 70.6307 131.232 70.567Z" fill="white"/>
<path id="Vector_12" fill-rule="evenodd" clip-rule="evenodd" d="M135.392 69.705C135.111 70.018 133.627 69.9552 134.189 70.4218C135.638 71.6229 136.126 75.1409 136.243 75.3325C136.261 75.3635 138.053 75.2094 138.001 74.8865C137.789 73.5911 138.553 71.0574 135.438 69.7829C135.38 69.7591 135.313 69.7929 135.392 69.705Z" fill="white"/>
<path id="Vector_13" fill-rule="evenodd" clip-rule="evenodd" d="M100.767 85.7433C100.488 85.6891 90.0805 67.0143 83.5382 79.3587C81.2098 83.7518 86.4392 97.8358 101.027 86.5636L100.767 85.7433Z" fill="#EFEEEA"/>
<path id="Vector_14" fill-rule="evenodd" clip-rule="evenodd" d="M100.758 39.2618C109.225 38.4963 119.758 37.2518 119.758 37.2518C124.202 25.1587 117.056 5.87092 112.305 5.68297C108.877 5.54724 105.188 11.4009 102.65 26.9218C101.814 32.0343 101.493 33.7971 100.758 39.2618Z" fill="#E6E6E6"/>
<path id="Vector_15" fill-rule="evenodd" clip-rule="evenodd" d="M157.281 55.5794C160.914 57.1201 165.825 73.1298 166.869 77.1682C167.964 77.2542 210.906 22.3759 169.147 45.4949C166.666 46.8684 155.605 53.0966 157.281 55.5794Z" fill="#E6E6E6"/>
<path id="Vector_16" fill-rule="evenodd" clip-rule="evenodd" d="M110.567 83.0047C141.111 100.817 108.798 102.327 104.646 96.6594C104.25 96.1187 98.7519 91.8237 100.726 85.7659C105 83.0046 108.5 82.1653 110.567 83.0047Z" fill="#EFEEEA"/>
<path id="Vector_17" fill-rule="evenodd" clip-rule="evenodd" d="M104.197 53.9474C104.295 54.0083 109.007 54.4754 107.751 58.168C106.49 61.8746 105.67 54.8625 104.197 53.9474Z" fill="white"/>
<path id="Vector_18" fill-rule="evenodd" clip-rule="evenodd" d="M182.719 162.377C191.461 156.512 222.237 152.954 222.23 153.13C221.584 168.191 208.462 181.191 194.581 186.305C193.977 186.527 191.97 187.843 191.709 187.02C189.994 181.633 182.719 162.377 182.719 162.377Z" fill="#54432F"/>
<path id="Vector_19" fill-rule="evenodd" clip-rule="evenodd" d="M84.8411 94.7468L78.1455 101.897C76.1231 104.819 69.6726 118.084 68.8237 132.068C67.7092 150.431 62.3372 167.962 67.5952 166.973C69.468 166.621 81.7124 152.218 85.4494 148.845C86.5973 147.808 91.0341 144.357 91.0341 144.357C88.6685 143.04 84.6819 132.895 83.2328 123.537C81.3645 111.477 81.6604 98.9927 84.8411 94.7468Z" fill="#9C7D4E"/>
<path id="Vector_20" fill-rule="evenodd" clip-rule="evenodd" d="M85.9032 134.467C84.7306 149.276 93.7431 156.809 98.0314 166.042C105.827 182.827 125.593 189.302 147.244 166.549C171.488 141.071 170.809 124.74 169.377 121.881C168.624 120.379 164.707 132.472 162.847 135.229C160.851 138.188 156.554 143.373 151.635 147.328C146.955 151.092 141.534 153.248 138.295 154.596C128.674 158.6 121.475 160.664 115.825 160.604C108.867 160.531 101.498 156.06 96.6738 151.904C94.0836 149.671 91.7426 146.531 90.2545 142.476C89.3368 139.975 89.3051 140.455 87.3338 135.317C87.1365 134.802 85.9274 134.161 85.9032 134.467Z" fill="#523D2D"/>
</g>
</svg>
