<svg width="35" height="35" viewBox="0 0 35 35" fill="none" xmlns="http://www.w3.org/2000/svg">
<path d="M17.3611 31.1098L17.3597 31.1084C13.2203 27.2731 9.86404 24.1571 7.53089 21.2405C5.20936 18.3383 4 15.7518 4 12.9918C4 8.4731 7.44333 5 11.8 5C14.2736 5 16.6704 6.18189 18.2343 8.04372L19 8.95534L19.7657 8.04372C21.3296 6.18189 23.7264 5 26.2 5C30.5567 5 34 8.4731 34 12.9918C34 15.7518 32.7906 18.3383 30.4691 21.2405C28.136 24.1571 24.7797 27.2731 20.6403 31.1084L20.6389 31.1098L19 32.6343L17.3611 31.1098Z" stroke="#3E3E3E" stroke-width="2"/>
</svg>
