<svg width="18" height="26" viewBox="0 0 18 26" fill="none" xmlns="http://www.w3.org/2000/svg">
<path id="Vector" d="M8.75 12.4252C7.9212 12.4252 7.12634 12.0959 6.54029 11.5099C5.95424 10.9238 5.625 10.129 5.625 9.30017C5.625 8.47137 5.95424 7.67651 6.54029 7.09046C7.12634 6.50441 7.9212 6.17517 8.75 6.17517C9.5788 6.17517 10.3737 6.50441 10.9597 7.09046C11.5458 7.67651 11.875 8.47137 11.875 9.30017C11.875 9.71055 11.7942 10.1169 11.6371 10.4961C11.4801 10.8752 11.2499 11.2197 10.9597 11.5099C10.6695 11.8001 10.325 12.0302 9.94589 12.1873C9.56674 12.3443 9.16038 12.4252 8.75 12.4252ZM8.75 0.550171C6.42936 0.550171 4.20376 1.47204 2.56282 3.11299C0.921872 4.75393 0 6.97953 0 9.30017C0 15.8627 8.75 25.5502 8.75 25.5502C8.75 25.5502 17.5 15.8627 17.5 9.30017C17.5 6.97953 16.5781 4.75393 14.9372 3.11299C13.2962 1.47204 11.0706 0.550171 8.75 0.550171Z" fill="#161616"/>
</svg>
