<svg width="178" height="35" viewBox="0 0 178 35" fill="none" xmlns="http://www.w3.org/2000/svg">
<path d="M0.36 0.399998H11.4V34H0.36V0.399998ZM21.72 0.399998H34.008L20.904 16.144L34.728 34H21.96L8.376 16.48L21.72 0.399998Z" fill="#669356"/>
<path d="M37.14 24.8C37.14 22.8 37.62 21.08 38.58 19.64C39.54 18.2 40.86 17.0933 42.54 16.32C44.22 15.5467 46.1267 15.16 48.26 15.16C50.3933 15.16 52.3 15.5467 53.98 16.32C55.66 17.0933 56.98 18.2 57.94 19.64C58.9 21.08 59.38 22.8 59.38 24.8C59.38 26.7733 58.9 28.48 57.94 29.92C56.98 31.36 55.66 32.4667 53.98 33.24C52.3 34.0133 50.3933 34.4 48.26 34.4C46.1267 34.4 44.22 34.0133 42.54 33.24C40.86 32.4667 39.54 31.36 38.58 29.92C37.62 28.48 37.14 26.7733 37.14 24.8ZM45.18 24.8C45.18 25.5467 45.3267 26.1733 45.62 26.68C45.9133 27.1867 46.2867 27.5733 46.74 27.84C47.22 28.08 47.7267 28.2 48.26 28.2C48.7933 28.2 49.2867 28.08 49.74 27.84C50.22 27.5733 50.6067 27.1867 50.9 26.68C51.1933 26.1733 51.34 25.5467 51.34 24.8C51.34 24.0533 51.1933 23.4267 50.9 22.92C50.6067 22.4133 50.22 22.0267 49.74 21.76C49.2867 21.4933 48.7933 21.36 48.26 21.36C47.7267 21.36 47.22 21.4933 46.74 21.76C46.2867 22.0267 45.9133 22.4133 45.62 22.92C45.3267 23.4267 45.18 24.0533 45.18 24.8ZM93.5884 22V34H85.7884V22.8C85.7884 21.9733 85.6684 21.3333 85.4284 20.88C85.1884 20.4 84.7618 20.16 84.1484 20.16C83.8284 20.16 83.5351 20.2533 83.2684 20.44C83.0018 20.6267 82.7884 20.92 82.6284 21.32C82.4684 21.6933 82.3884 22.1867 82.3884 22.8V34H74.5884V22.8C74.5884 21.9733 74.4684 21.3333 74.2284 20.88C73.9884 20.4 73.5618 20.16 72.9484 20.16C72.6284 20.16 72.3351 20.2533 72.0684 20.44C71.8018 20.6267 71.5884 20.92 71.4284 21.32C71.2684 21.6933 71.1884 22.1867 71.1884 22.8V34H63.7884V15.6H71.1884V18.36C71.6951 17.4 72.4018 16.6267 73.3084 16.04C74.2151 15.4533 75.3351 15.16 76.6684 15.16C78.1884 15.16 79.3484 15.4 80.1484 15.88C80.9751 16.3333 81.5618 17.0267 81.9084 17.96C82.6018 17.1067 83.4551 16.4267 84.4684 15.92C85.4818 15.4133 86.6151 15.16 87.8684 15.16C89.4151 15.16 90.5884 15.4267 91.3884 15.96C92.2151 16.4933 92.7884 17.2667 93.1084 18.28C93.4284 19.2933 93.5884 20.5333 93.5884 22ZM98.1775 9.12C98.1775 7.94667 98.5908 7 99.4175 6.28C100.271 5.56 101.297 5.2 102.497 5.2C103.697 5.2 104.711 5.56 105.537 6.28C106.391 7 106.817 7.94667 106.817 9.12C106.817 10.2933 106.391 11.24 105.537 11.96C104.711 12.68 103.697 13.04 102.497 13.04C101.297 13.04 100.271 12.68 99.4175 11.96C98.5908 11.24 98.1775 10.2933 98.1775 9.12ZM98.7375 15.6H106.217V34H98.7375V15.6ZM119.023 15.6V34H111.423V15.6H119.023ZM124.183 23.52C123.943 23.2 123.636 22.9333 123.263 22.72C122.889 22.5067 122.436 22.4 121.903 22.4C121.449 22.4 120.996 22.5333 120.543 22.8C120.089 23.0667 119.716 23.48 119.423 24.04C119.156 24.6 119.023 25.32 119.023 26.2L117.583 22.8C117.583 21.3333 117.889 20.0267 118.503 18.88C119.116 17.7333 119.916 16.8267 120.903 16.16C121.916 15.4667 122.983 15.12 124.103 15.12C124.769 15.12 125.409 15.2933 126.023 15.64C126.663 15.96 127.103 16.3467 127.343 16.8L124.183 23.52ZM130.748 2.8H138.148V34H130.748V2.8ZM144.788 15.6H153.948L146.148 23.2L154.748 34H145.748L136.988 23.2L144.788 15.6ZM164.994 28.2C164.994 28.5467 165.074 28.84 165.234 29.08C165.421 29.2933 165.647 29.4667 165.914 29.6C166.207 29.7067 166.514 29.76 166.834 29.76C167.341 29.76 167.821 29.6533 168.274 29.44C168.754 29.2 169.141 28.84 169.434 28.36C169.754 27.8533 169.914 27.2 169.914 26.4L170.554 28.8C170.554 29.9733 170.261 30.9867 169.674 31.84C169.087 32.6667 168.287 33.3067 167.274 33.76C166.261 34.1867 165.114 34.4 163.834 34.4C162.634 34.4 161.527 34.1867 160.514 33.76C159.501 33.3333 158.687 32.6933 158.074 31.84C157.461 30.96 157.154 29.8933 157.154 28.64C157.154 26.88 157.767 25.5067 158.994 24.52C160.247 23.5067 162.047 23 164.394 23C165.354 23 166.274 23.08 167.154 23.24C168.061 23.4 168.861 23.6267 169.554 23.92C170.274 24.1867 170.834 24.5333 171.234 24.96V28.12C170.781 27.72 170.167 27.4 169.394 27.16C168.647 26.92 167.874 26.8 167.074 26.8C166.567 26.8 166.154 26.8533 165.834 26.96C165.541 27.0667 165.327 27.2267 165.194 27.44C165.061 27.6267 164.994 27.88 164.994 28.2ZM160.954 22.08L158.594 17.04C159.874 16.5333 161.314 16.0667 162.914 15.64C164.541 15.2133 166.234 15 167.994 15C169.727 15 171.301 15.24 172.714 15.72C174.127 16.2 175.247 16.9067 176.074 17.84C176.901 18.7467 177.314 19.8667 177.314 21.2V34H169.914V23.12C169.914 22.7733 169.861 22.4533 169.754 22.16C169.647 21.8667 169.474 21.6133 169.234 21.4C168.994 21.16 168.674 20.9867 168.274 20.88C167.874 20.7467 167.394 20.68 166.834 20.68C166.087 20.68 165.301 20.7733 164.474 20.96C163.647 21.12 162.914 21.32 162.274 21.56C161.634 21.7733 161.194 21.9467 160.954 22.08Z" fill="#F4F4F4"/>
</svg>
