<svg width="24" height="25" viewBox="0 0 24 25" fill="none" xmlns="http://www.w3.org/2000/svg">
<g id="material-symbols:menstrual-health">
<path id="Vector" d="M2 3.05017V12.5502C2 14.0668 2.3 15.4668 2.9 16.7502C3.5 18.0335 4.325 19.1335 5.375 20.0502C4.94167 19.4168 4.60433 18.7212 4.363 17.9632C4.12167 17.2052 4.00067 16.4008 4 15.5502C4 14.3168 4.25433 13.0292 4.763 11.6872C5.27167 10.3452 6.11733 8.79117 7.3 7.02517L2 3.05017ZM12 3.97517C9.78333 6.64184 8.22933 8.93784 7.338 10.8632C6.44667 12.7885 6.00067 14.3508 6 15.5502C6 17.2168 6.58333 18.6335 7.75 19.8002C8.91667 20.9668 10.3333 21.5502 12 21.5502C13.6667 21.5502 15.0833 20.9668 16.25 19.8002C17.4167 18.6335 18 17.2168 18 15.5502C18 14.3502 17.55 12.7792 16.65 10.8372C15.75 8.89517 14.2 6.60784 12 3.97517ZM22 3.05017L16.7 7.02517C17.8833 8.79184 18.7293 10.3462 19.238 11.6882C19.7467 13.0302 20.0007 14.3175 20 15.5502C20 16.4002 19.879 17.2045 19.637 17.9632C19.395 18.7218 19.0577 19.4175 18.625 20.0502C19.675 19.1335 20.5 18.0335 21.1 16.7502C21.7 15.4668 22 14.0668 22 12.5502V3.05017Z" fill="#669356"/>
</g>
</svg>
