<svg width="24" height="24" viewBox="0 0 24 24" fill="none" xmlns="http://www.w3.org/2000/svg">
<g id="Vector">
<path id="Vector_2" d="M9.68687 12.0202L10.0404 11.6667L9.68687 11.3131L0.50163 2.12786C0.507463 1.77957 0.52932 1.50925 0.573097 1.29575C0.624088 1.04706 0.698175 0.909483 0.780665 0.821827C0.939541 0.653 1.2716 0.520045 2.12829 0.502071L11.3131 9.68689L11.6667 10.0404L12.0202 9.68689L21.1281 0.578996C21.4387 0.692981 21.6735 0.782426 21.8619 0.867397C22.102 0.975748 22.2279 1.06051 22.3128 1.14546C22.3946 1.22724 22.4674 1.33812 22.5519 1.54705C22.6188 1.71242 22.6847 1.91693 22.7682 2.19132L13.6464 11.3131L13.2929 11.6667L13.6464 12.0202L22.7686 21.1424C22.6841 21.4237 22.6174 21.6392 22.5486 21.8182C22.461 22.0464 22.3851 22.1727 22.3009 22.263C22.1419 22.4333 21.879 22.5625 21.1468 22.7731L12.0202 13.6464L11.6667 13.2929L11.3131 13.6464L2.17783 22.7817C1.62259 22.6365 1.30187 22.47 1.08248 22.2506C0.863104 22.0312 0.69663 21.7106 0.551573 21.1555L9.68687 12.0202Z" fill="#F4F4F4" stroke="#F4F4F4"/>
</g>
</svg>
