<svg width="19" height="21" viewBox="0 0 19 21" fill="none" xmlns="http://www.w3.org/2000/svg">
<g id="Vector">
<path id="Vector_2" d="M9.52486 8.55217L16.6104 0.597138C16.8075 0.679102 16.9596 0.745466 17.0841 0.808556C17.2641 0.899718 17.3502 0.966743 17.4065 1.02997C17.4622 1.09256 17.517 1.18312 17.5832 1.3668C17.6348 1.50986 17.6856 1.68668 17.75 1.92395L10.6084 9.94195L10.3122 10.2745L10.6084 10.6071L17.7504 18.6255C17.6852 18.869 17.6336 19.0556 17.5805 19.2108C17.5118 19.4118 17.4541 19.5166 17.3954 19.5872C17.2954 19.7074 17.1322 19.8073 16.6303 19.9742L9.52486 11.9969L9.15149 11.5777L8.77812 11.9969L1.66451 19.9834C1.29777 19.8667 1.08975 19.7367 0.945146 19.5743C0.784121 19.3935 0.655644 19.1217 0.542106 18.6372L7.69456 10.6071L7.99077 10.2745L7.69456 9.94195L0.5014 1.86609C0.506151 1.5633 0.523285 1.32819 0.557196 1.14251C0.597434 0.922189 0.65497 0.808756 0.709935 0.743181C0.800398 0.635256 0.998965 0.52478 1.60929 0.50362L8.77812 8.55217L9.15149 8.97135L9.52486 8.55217Z" fill="#3E3E3E" stroke="#3E3E3E"/>
</g>
</svg>
