<svg width="30" height="31" viewBox="0 0 30 31" fill="none" xmlns="http://www.w3.org/2000/svg">
<g id="mail">
<path id="Vector" d="M27.1875 4.86987H2.8125C2.29395 4.86987 1.875 5.28882 1.875 5.80737V24.5574C1.875 25.0759 2.29395 25.4949 2.8125 25.4949H27.1875C27.7061 25.4949 28.125 25.0759 28.125 24.5574V5.80737C28.125 5.28882 27.7061 4.86987 27.1875 4.86987ZM26.0156 8.11597V23.3855H3.98438V8.11597L3.17578 7.48608L4.32715 6.00659L5.58105 6.98218H24.4219L25.6758 6.00659L26.8271 7.48608L26.0156 8.11597ZM24.4219 6.97925L15 14.3035L5.57812 6.97925L4.32422 6.00366L3.17285 7.48315L3.98145 8.11304L13.9893 15.8943C14.2771 16.1179 14.6311 16.2393 14.9956 16.2393C15.3601 16.2393 15.7141 16.1179 16.002 15.8943L26.0156 8.11597L26.8242 7.48608L25.6729 6.00659L24.4219 6.97925Z" fill="#3E3E3E"/>
</g>
</svg>
