<svg width="30" height="30" viewBox="0 0 30 30" fill="none" xmlns="http://www.w3.org/2000/svg">
<g id="material-symbols:add-a-photo">
<path id="Vector" d="M23.75 8.75V6.25H21.25V3.75H23.75V1.25H26.25V3.75H28.75V6.25H26.25V8.75H23.75ZM13.75 21.875C15.3125 21.875 16.6408 21.3279 17.735 20.2337C18.8292 19.1396 19.3758 17.8117 19.375 16.25C19.375 14.6875 18.8279 13.3592 17.7338 12.265C16.6396 11.1708 15.3117 10.6242 13.75 10.625C12.1875 10.625 10.8592 11.1721 9.765 12.2662C8.67084 13.3604 8.12417 14.6883 8.125 16.25C8.125 17.8125 8.67209 19.1408 9.76625 20.235C10.8604 21.3292 12.1883 21.8758 13.75 21.875ZM13.75 19.375C12.875 19.375 12.1354 19.0729 11.5313 18.4688C10.9271 17.8646 10.625 17.125 10.625 16.25C10.625 15.375 10.9271 14.6354 11.5313 14.0312C12.1354 13.4271 12.875 13.125 13.75 13.125C14.625 13.125 15.3646 13.4271 15.9688 14.0312C16.5729 14.6354 16.875 15.375 16.875 16.25C16.875 17.125 16.5729 17.8646 15.9688 18.4688C15.3646 19.0729 14.625 19.375 13.75 19.375ZM3.75 26.25C3.0625 26.25 2.47375 26.005 1.98375 25.515C1.49375 25.025 1.24917 24.4367 1.25 23.75V8.75C1.25 8.0625 1.495 7.47375 1.985 6.98375C2.475 6.49375 3.06334 6.24917 3.75 6.25H7.6875L10 3.75H18.75V8.75H21.25V11.25H26.25V23.75C26.25 24.4375 26.005 25.0263 25.515 25.5163C25.025 26.0063 24.4367 26.2508 23.75 26.25H3.75Z" fill="black"/>
</g>
</svg>
