<svg width="32" height="33" viewBox="0 0 32 33" fill="none" xmlns="http://www.w3.org/2000/svg">
<g id="&#208;&#158;&#209;&#129;&#208;&#190;&#208;&#177;&#208;&#184;&#209;&#129;&#209;&#130;&#208;&#184;&#208;&#185; &#208;&#186;&#208;&#176;&#208;&#177;&#209;&#150;&#208;&#189;&#208;&#181;&#209;&#130;">
<path id="Vector" d="M1 28.0896C1 26.1005 1.79018 24.1928 3.1967 22.7863C4.60322 21.3798 6.51088 20.5896 8.5 20.5896H23.5C25.4891 20.5896 27.3968 21.3798 28.8033 22.7863C30.2098 24.1928 31 26.1005 31 28.0896C31 29.0842 30.6049 30.038 29.9016 30.7412C29.1984 31.4445 28.2446 31.8396 27.25 31.8396H4.75C3.75544 31.8396 2.80161 31.4445 2.09835 30.7412C1.39509 30.038 1 29.0842 1 28.0896Z" stroke="#3E3E3E" stroke-width="2" stroke-linejoin="round"/>
<path id="Vector_2" d="M16 13.0896C19.1066 13.0896 21.625 10.5712 21.625 7.4646C21.625 4.358 19.1066 1.8396 16 1.8396C12.8934 1.8396 10.375 4.358 10.375 7.4646C10.375 10.5712 12.8934 13.0896 16 13.0896Z" stroke="#3E3E3E" stroke-width="2"/>
</g>
</svg>
