<svg width="150" height="217" viewBox="0 0 150 217" fill="none" xmlns="http://www.w3.org/2000/svg">
<path fill-rule="evenodd" clip-rule="evenodd" d="M23.5205 149.635L15.6689 60.6235C33.1014 58.6626 45.3365 59.1207 60.1702 61.4611C64.5324 69.6402 64.7064 95.5133 65.5465 106.086C68.3945 116.312 67.8855 124.669 68.2236 135.254L108.559 137.807C123.105 137.956 122.328 140.435 124.509 143.363L79.0774 156.177L62.4105 155.549V152.402L23.5205 149.635Z" fill="#84C2C2"/>
<path fill-rule="evenodd" clip-rule="evenodd" d="M79.1029 156.301L62.436 155.673V171.064L79.8196 172.699L123.011 157.197C124.235 155.494 125.55 149.222 124.534 143.487L79.1029 156.301Z" fill="#336666"/>
<path fill-rule="evenodd" clip-rule="evenodd" d="M68.249 135.378L60.1956 61.5852C90.5442 55.5749 72.6852 88.7348 73.3086 124.873C87.0988 123.73 103.306 119.988 114.588 120.816C119.725 122.668 119.407 123.967 120.322 126.372L119.999 139.157L68.249 135.378Z" fill="#669999"/>
<path fill-rule="evenodd" clip-rule="evenodd" d="M67.5124 140.625C68.3578 130.96 68.8759 124.427 67.033 112.88C77.0898 114.869 86.7876 114.151 97.7412 114.275C96.281 126.836 97.9963 129.889 100.071 141.247L67.5124 140.625Z" fill="#000066"/>
<path fill-rule="evenodd" clip-rule="evenodd" d="M27.724 163.994L22.4216 162.914L17.0049 196.803H19.6932L27.724 163.994Z" fill="#4D4D4D"/>
<path fill-rule="evenodd" clip-rule="evenodd" d="M75.6036 172.303L27.7239 163.994L19.6931 196.804L21.4853 195.549L28.4745 167.233L71.4863 175.835L74.5331 216.159H75.698L75.6036 172.303Z" fill="#333333"/>
<path fill-rule="evenodd" clip-rule="evenodd" d="M77.7688 214.766L75.6982 216.159L75.6038 172.303L79.8197 172.699L119.199 158.565L124.176 193.219L121.309 194.474L113.781 162.573L79.0135 176.014L77.7688 214.766Z" fill="#4D4D4D"/>
<path fill-rule="evenodd" clip-rule="evenodd" d="M1.22461 62.8164C4.36202 110.087 8.37325 128.106 18.5289 162.698L62.5264 171.845V138.184C51.4201 124.838 31.36 145.896 23.0992 126.841L22.419 72.3333C22.8371 64.9546 14.2476 55.9258 1.22461 62.8164Z" fill="#336666"/>
<path fill-rule="evenodd" clip-rule="evenodd" d="M111.073 50.8649L86.6042 38.6262C89.7287 34.9207 92.8793 26.6616 100.072 27.6238L106.568 17.7222C111.289 17.4805 114.175 18.6764 116.148 23.2137L112.245 32.7176C116.659 39.1803 112.992 44.1656 111.073 50.8649Z" fill="#000028"/>
<path fill-rule="evenodd" clip-rule="evenodd" d="M97.9583 40.4905C104.501 43.0098 112.258 49.1449 110.923 51.3758C109.589 53.6071 102.147 50.737 95.6494 47.4563C89.152 44.1753 85.673 40.0955 86.6042 38.6263C87.5352 37.157 91.4158 37.9714 97.9583 40.4905Z" fill="white"/>
<path fill-rule="evenodd" clip-rule="evenodd" d="M123.851 174.827L149.977 175.117L149.414 177.495L123.818 177.615L123.851 174.827Z" fill="#1A1A1A"/>
<path d="M136.645 181.458C143.727 181.458 149.468 179.532 149.468 177.157C149.468 174.781 143.727 172.856 136.645 172.856C129.564 172.856 123.823 174.781 123.823 177.157C123.823 179.532 129.564 181.458 136.645 181.458Z" fill="#1A1A1A"/>
<path d="M136.867 179.128C144.123 179.128 150.005 177.203 150.005 174.827C150.005 172.452 144.123 170.526 136.867 170.526C129.61 170.526 123.728 172.452 123.728 174.827C123.728 177.203 129.61 179.128 136.867 179.128Z" fill="#333333"/>
<path fill-rule="evenodd" clip-rule="evenodd" d="M115.31 25.254L116.148 23.2139L118.352 25.9119C118.412 27.0315 118.06 27.9744 117.781 28.0945L113.529 29.5917L114.197 27.9658C115.059 27.852 116.112 27.4806 117.052 26.9522C117.469 26.4198 116.586 25.6744 115.31 25.254Z" fill="#1A1A1A"/>
<path fill-rule="evenodd" clip-rule="evenodd" d="M143.661 173.299C143.324 147.139 144.526 131.985 144.006 99.0922C143.313 55.1503 146.113 38.1409 140.313 33.1247C136.174 29.5451 132.437 24.6642 117.74 25.1627L118.201 26.965C123.031 26.9476 126.38 26.801 130.916 28.8383C136.698 31.4355 141.861 36.0566 141.908 42.7517L141.883 173.23L143.661 173.299Z" fill="#4D4D4D" stroke="#4D4D4D" stroke-miterlimit="22.9256" stroke-linecap="round" stroke-linejoin="round"/>
<path fill-rule="evenodd" clip-rule="evenodd" d="M62.4361 139.24V152.526L68.6816 150.806L68.9213 137.472C65.5232 121.564 37.4677 140.763 27.6956 127.587C25.6458 93.591 38.615 59.0972 9.84749 60.4543C7.0531 60.7009 4.43823 61.7316 1.53199 63.3451L1.13428 64.2565C4.20927 62.9687 8.13131 61.6474 10.8221 61.8733C14.5486 61.891 17.2478 63.7538 18.9802 65.3676C20.457 67.1912 21.8973 68.4279 22.0804 70.8613C23.4364 88.8818 21.9207 109.623 23.4275 127.87C31.1951 144.748 56.111 124.39 62.4361 139.24Z" fill="#669999"/>
<path d="M49.7404 0.321777H0.348389V34.5521H49.7404V0.321777Z" fill="#333333"/>
<path d="M44.5686 3.90588H5.52026V30.9674H44.5686V3.90588Z" fill="#CCFF66"/>
<path d="M31.2483 27.2968C35.4871 27.2968 38.9233 24.1354 38.9233 20.2357C38.9233 16.3359 35.4871 13.1746 31.2483 13.1746C27.0095 13.1746 23.5732 16.3359 23.5732 20.2357C23.5732 24.1354 27.0095 27.2968 31.2483 27.2968Z" fill="white"/>
<path fill-rule="evenodd" clip-rule="evenodd" d="M23.5786 19.9853C23.6559 17.9509 24.6679 16.135 26.2324 14.8911L29.6681 19.9853H23.5786Z" fill="#999999"/>
</svg>
