<svg xmlns="http://www.w3.org/2000/svg" width="204" height="214" viewBox="0 0 204 214" fill="none">
  <path fill-rule="evenodd" clip-rule="evenodd" d="M42.5975 178.625L37.1132 86.2424C45.5226 82.2518 48.4476 82.262 56.8568 87.3645C62.4633 119.333 64.4131 145.846 62.7066 175.633C57.1005 180.631 53.1099 180.191 42.5975 178.625Z" fill="#1A1A1A"/>
  <path fill-rule="evenodd" clip-rule="evenodd" d="M42.5396 177.641L37.2655 88.735L29.0013 88.4738L34.5537 177.17L42.5396 177.641Z" fill="#666666"/>
  <path fill-rule="evenodd" clip-rule="evenodd" d="M29.0014 88.4738C20.7806 93.0673 17.2406 99.7665 15.4734 107.751L19.2049 166.666C23.5925 175.759 29.3675 177.219 35.5828 177.219L29.0014 88.4738Z" fill="#7B8296"/>
  <path fill-rule="evenodd" clip-rule="evenodd" d="M8.59444 165.895L7.5711 81.4249C0.350769 126.707 -3.1988 121.576 8.59444 165.895Z" fill="#090502"/>
  <path fill-rule="evenodd" clip-rule="evenodd" d="M13.8551 169.281L7.57117 81.4249L8.59451 165.895L13.8551 169.281Z" fill="#444347"/>
  <path fill-rule="evenodd" clip-rule="evenodd" d="M7.57117 81.4251L13.8551 169.281L19.4718 170.351C17.5132 143.302 15.554 116.253 13.5955 89.204C13.2841 84.9001 13.227 84.3746 14.3953 80.1791C52.8478 -57.9299 242.638 21.5279 187.842 140.163L138.666 190.355L124.772 207.995L129.159 213.268L191.864 143.072C250.921 25.7162 72.336 -63.5528 15.7159 58.1795C14.9593 59.8064 14.4633 61.2469 13.8846 62.9412L7.57117 81.4251Z" fill="#737077"/>
  <path fill-rule="evenodd" clip-rule="evenodd" d="M195.231 137.244L131.317 210.853C172.503 199.617 178.946 172.045 195.231 137.244Z" fill="#090502"/>
  <path fill-rule="evenodd" clip-rule="evenodd" d="M101.325 199.386L163.772 130.791C159.73 122.44 157.443 120.625 147.675 119.363C123.175 140.79 104.96 160.241 87.5337 184.523C88.7565 191.913 92.1442 194.057 101.325 199.386Z" fill="#1A1A1A"/>
  <path fill-rule="evenodd" clip-rule="evenodd" d="M101.989 198.655L162.084 132.638L168.69 137.584L108.511 203.264L101.989 198.655Z" fill="#666666"/>
  <path fill-rule="evenodd" clip-rule="evenodd" d="M168.69 137.585C172.206 146.288 170.747 153.716 167.097 161.041L127.09 204.64C117.944 208.994 112.523 206.535 107.678 202.662L168.69 137.585Z" fill="#7B8296"/>
</svg>