<svg width="280" height="189" viewBox="0 0 280 189" fill="none" xmlns="http://www.w3.org/2000/svg">
<path fill-rule="evenodd" clip-rule="evenodd" d="M129.513 0.163086C134.755 4.06642 135.296 11.4945 145.238 11.8728C156.966 10.7531 164.385 15.8996 180.422 8.51317C204.057 15.9932 201.9 17.4826 226.254 13.0878C219.334 51.3402 220.248 77.8426 217.246 110.22L120.897 115.311L119.722 112.178L131.838 35.342C129.626 25.9658 133.294 18.9698 129.118 7.99654L129.513 0.163086Z" fill="#003C3C"/>
<path fill-rule="evenodd" clip-rule="evenodd" d="M131.802 39.2272L132.41 35.3694C162.394 39.2249 190.519 40.7144 221.776 39.7068L221.431 43.8851C205.642 43.3345 189.496 44.1315 173.853 43.3942C159.694 42.7273 146.034 40.5722 131.802 39.2272Z" fill="#808080"/>
<path fill-rule="evenodd" clip-rule="evenodd" d="M130.417 47.7293L131.057 43.8955C161.389 47.7508 189.177 49.1566 220.797 48.149L220.448 52.3273C204.475 51.7767 188.142 52.5734 172.317 51.8364C157.995 51.1695 144.813 49.074 130.417 47.7293Z" fill="#808080"/>
<path fill-rule="evenodd" clip-rule="evenodd" d="M128.996 55.404L129.611 51.5463C159.943 55.4016 189.227 56.9026 220.847 55.8953L220.518 60.3608C204.546 59.8102 187.359 60.3081 171.534 59.5711C157.211 58.904 143.393 56.7491 128.996 55.404Z" fill="#808080"/>
<path fill-rule="evenodd" clip-rule="evenodd" d="M131.933 31.394L131.669 27.217C162.002 31.0723 191.331 32.8812 222.951 31.8737L222.008 36.0324C206.036 35.4815 190.296 36.2983 174.471 35.5611C160.148 34.8942 146.33 32.739 131.933 31.394Z" fill="#808080"/>
<path fill-rule="evenodd" clip-rule="evenodd" d="M131.752 23.7038L131.894 19.8857C162.226 23.7413 192.09 25.9437 223.71 24.9361L223.231 28.8237C207.259 28.2731 190.688 28.6605 174.863 27.9235C160.541 27.257 146.148 25.0485 131.752 23.7038Z" fill="#808080"/>
<path fill-rule="evenodd" clip-rule="evenodd" d="M131.791 17.6568L131.275 13.4365C161.608 17.2918 193.191 19.2711 224.812 18.2635L224.095 22.3891C208.122 21.8385 190.884 22.5899 175.059 21.8529C160.737 21.1863 146.187 19.0016 131.791 17.6568Z" fill="#808080"/>
<path fill-rule="evenodd" clip-rule="evenodd" d="M128.219 62.96L128.833 59.1019C159.165 62.9575 188.687 64.466 220.307 63.4587L220.023 67.933C204.051 67.3824 186.582 67.864 170.756 67.127C156.434 66.4599 142.615 64.3047 128.219 62.96Z" fill="#808080"/>
<path fill-rule="evenodd" clip-rule="evenodd" d="M126.67 71.1761L126.774 67.4553C157.106 71.3109 187.995 72.8796 219.615 71.872L219.266 76.0503C203.294 75.4997 186.961 76.2961 171.136 75.5594C156.813 74.8925 141.066 72.5209 126.67 71.1761Z" fill="#808080"/>
<path fill-rule="evenodd" clip-rule="evenodd" d="M125.292 80.0938L125.981 75.8574C156.314 79.7127 186.821 81.4959 218.44 80.4886L218.091 84.6667C202.119 84.1161 185.786 84.913 169.961 84.176C155.638 83.5089 139.689 81.4385 125.292 80.0938Z" fill="#808080"/>
<path fill-rule="evenodd" clip-rule="evenodd" d="M124.146 88.0429L125.009 83.2463C155.342 87.1018 187.192 90.0531 218.812 89.0455L218.561 93.1021C202.589 92.5515 184.532 92.8671 168.707 92.1304C154.385 91.4636 138.543 89.3876 124.146 88.0429Z" fill="#808080"/>
<path fill-rule="evenodd" clip-rule="evenodd" d="M122.782 96.7548L123.439 92.4199C153.772 96.2752 186.613 99.0058 218.233 97.9982L217.909 102.396C201.937 101.845 184.466 102.238 168.641 101.501C154.318 100.834 137.179 98.0998 122.782 96.7548Z" fill="#808080"/>
<path fill-rule="evenodd" clip-rule="evenodd" d="M119.021 39.8457C137.701 43.0182 164.103 36.7307 178.248 27.2648C180.395 25.8281 169.808 90.3723 172.508 110.006C177.337 145.131 175.929 130.764 124.009 130.764C83.9001 130.764 93.5731 133.457 98.0919 74.7228C99.282 59.2586 97.443 36.181 119.021 39.8457Z" fill="#1A1A1A"/>
<path fill-rule="evenodd" clip-rule="evenodd" d="M1.18157 151.653C5.19149 105.855 17.1067 82.6661 0.395996 24.7007C18.6789 26.1628 19.7285 40.1577 55.2442 29.0867C78.7385 27.103 97.9249 38.0431 126.119 18.8258C115.675 85.669 126.004 122.701 134.845 151.043C123.571 153.89 110.847 141.943 98.404 145.068C56.6489 155.555 54.46 146.713 23.0417 145.869C17.9723 145.732 6.43102 151.907 1.18157 151.653Z" fill="#E6E6E6"/>
<path fill-rule="evenodd" clip-rule="evenodd" d="M25.5628 47.9006L7.17554 56.465L8.30434 67.4253L26.2761 58.553L43.1176 66.3862L61.1341 55.4196L84.2421 66.3862L99.5787 55.2031L122.368 65.0083L122.638 53.6189L98.8652 44.5509L83.5283 55.7341L60.4206 44.7674L42.4041 55.7341L25.5628 47.9006Z" fill="#4D4D4D"/>
<path fill-rule="evenodd" clip-rule="evenodd" d="M25.7587 70.8128L8.77746 78.7222L8.55933 90.3088L26.472 81.465L43.3135 89.2984L61.33 78.3318L84.4382 89.2984L99.7749 78.1156L122.504 87.6806L121.997 76.2111L99.0614 67.4631L83.7245 78.646L60.6165 67.6796L42.6 78.646L25.7587 70.8128Z" fill="#4D4D4D"/>
<path fill-rule="evenodd" clip-rule="evenodd" d="M168.615 188.219C162.249 163.059 161.509 152.36 152.082 134.431C142.126 105.373 136.113 101.112 122.214 78.9814C134.341 74.5137 142.552 64.9544 158.597 65.5782C164.648 56.2923 188.324 48.5732 204.95 48.2951C213.988 40.7569 221.067 41.8349 232.064 25.6801C232.099 31.5143 233.678 43.3599 237.416 52.5262C240.928 61.1403 246.832 67.3247 251.985 77.415C257.167 87.564 262.961 93.3365 263.016 107.348C263.045 114.792 275.685 110.91 279.454 132.212L258.584 136.681L241.296 155.319C215.894 169.811 192.841 172.553 168.615 188.219Z" fill="#B0DC9F"/>
<path fill-rule="evenodd" clip-rule="evenodd" d="M24.1918 95.0957L7.62139 102.814L6.20044 114.856L24.9053 105.748L41.7466 113.581L59.763 102.615L82.871 113.581L101.843 102.094L125.537 113.337L123.704 100.701L101.141 91.5665L82.1578 102.929L59.0495 91.9622L41.0331 102.929L24.1918 95.0957Z" fill="#4D4D4D"/>
<path fill-rule="evenodd" clip-rule="evenodd" d="M22.9913 119.012L3.5 130.483L2.5 140.483L23.7048 129.664L40.5461 137.498L58.5626 126.531L81.6706 137.498L100.642 126.01L131 138.983L128 126.845L99.9402 115.483L80.9573 126.845L57.8491 115.879L39.8326 126.845L22.9913 119.012Z" fill="#4D4D4D"/>
</svg>
