<svg width="347" height="123" viewBox="0 0 347 123" fill="none" xmlns="http://www.w3.org/2000/svg">
<path d="M2 11.834C79.5271 50.834 185.5 94.3132 345.5 1.80054" stroke="#4D4D4D" stroke-width="3" stroke-miterlimit="22.9256" stroke-linecap="round"/>
<path fill-rule="evenodd" clip-rule="evenodd" d="M106.608 49.1547L76.1411 117.177L74.8094 122.215C59.9833 118.161 43.1762 115.467 27.9492 112.823L28.9797 107.362L38.1609 27.1794C42.3661 28.6797 43.5979 29.3892 48.1013 30.9912C53.4181 33.3438 55.4084 33.7089 59.9181 35.193C59.6304 45.8874 57.9963 54.2764 57.7083 64.9711L58.6242 84.5266C60.3572 86.1714 74.9179 59.439 83.9246 42.0523C86.4108 43.2309 87.3511 43.4309 94.1167 45.6984L106.608 49.1547Z" fill="#003C3C"/>
<path fill-rule="evenodd" clip-rule="evenodd" d="M85.4797 94.7509L106.596 49.4407L106.608 49.1548L104.739 91.5948L103.421 108.136C97.5984 110.547 92.0615 110.533 86.8311 107.922L85.4797 94.7509Z" fill="#003333"/>
<path fill-rule="evenodd" clip-rule="evenodd" d="M31.9482 81.4349L37.9661 27.316L7.77051 87.5029C10.8902 90.7035 18.2832 94.5221 22.6803 94.9915L31.9482 81.4349Z" fill="#003333"/>
<path d="M50.5739 115.712C51.4432 115.712 52.1478 115.041 52.1478 114.214C52.1478 113.387 51.4432 112.716 50.5739 112.716C49.7047 112.716 49 113.387 49 114.214C49 115.041 49.7047 115.712 50.5739 115.712Z" fill="#1A1A1A"/>
<path fill-rule="evenodd" clip-rule="evenodd" d="M49.3608 34.8057L47.8923 34.1707L51.1559 22.6347C51.273 22.2193 51.2812 22.3012 51.6761 22.4462L54.9728 23.6573C55.3486 23.7952 55.3155 23.7153 55.1183 24.0817L49.3608 34.8057Z" fill="#654333"/>
<path fill-rule="evenodd" clip-rule="evenodd" d="M93.8088 49.9855L92.3401 49.3505L95.6039 37.8147C95.721 37.3994 95.7293 37.4813 96.1241 37.6263L99.4208 38.8371C99.7964 38.9752 99.7635 38.895 99.5663 39.2617L93.8088 49.9855Z" fill="#654333"/>
<path fill-rule="evenodd" clip-rule="evenodd" d="M177.662 54.1387C159.579 55.6121 154.4 55.7093 137.157 54.4397L136.303 60.2833C130.758 73.0282 131.938 84.3214 131.053 95.2286L131.27 100.944C139 102.516 147.527 103.377 155.539 101.532L159.033 83.3968L163.478 101.37C173.898 102.841 182.25 100.303 188.229 96.6259C185.626 82.7477 184.939 71.1557 179.012 58.16L177.662 54.1387Z" fill="#99CC66"/>
<path d="M158.539 59.2273C158.992 59.2103 159.345 58.831 159.328 58.3802C159.311 57.9294 158.93 57.5777 158.477 57.5947C158.024 57.6117 157.67 57.991 157.687 58.4418C157.704 58.8926 158.086 59.2443 158.539 59.2273Z" fill="#4D4D4D"/>
<path fill-rule="evenodd" clip-rule="evenodd" d="M170.81 57.6483L169.211 57.6975L167.176 49.4002C167.103 49.1014 167.146 49.1508 167.564 49.1214L171.061 48.8753C171.46 48.8473 171.395 48.8066 171.376 49.0989L170.81 57.6483Z" fill="#654333"/>
<path fill-rule="evenodd" clip-rule="evenodd" d="M145.822 58.144L144.224 58.0918L143.209 49.8847C143.172 49.5894 143.209 49.6399 143.629 49.6375L147.14 49.6166C147.54 49.6144 147.481 49.5707 147.426 49.8542L145.822 58.144Z" fill="#654333"/>
<path fill-rule="evenodd" clip-rule="evenodd" d="M275.581 33.8673L274.23 34.2557L270.606 26.83C270.475 26.5627 270.523 26.6004 270.873 26.4828L273.795 25.5019C274.128 25.3904 274.064 25.3657 274.114 25.647L275.581 33.8673Z" fill="#654333"/>
<path fill-rule="evenodd" clip-rule="evenodd" d="M259.8 40.4241L258.582 41.1438L253.181 34.0647C252.987 33.8101 253.042 33.8392 253.354 33.6348L255.952 31.9285C256.248 31.734 256.179 31.7225 256.299 32.0104L259.8 40.4241Z" fill="#654333"/>
<path fill-rule="evenodd" clip-rule="evenodd" d="M131.052 96.2676C145.459 99.0141 143.549 99.4997 156.381 97.1611L155.497 101.5C146.259 103.337 140.372 102.726 131.228 100.912L131.052 96.2676Z" fill="#99CC66"/>
<path fill-rule="evenodd" clip-rule="evenodd" d="M162.299 96.6045C176.962 97.0152 175.152 96.5342 187.44 92.1772L188.229 96.626C179.519 101.362 175.399 102.163 163.478 101.37L162.299 96.6045Z" fill="#99CC66"/>
<path fill-rule="evenodd" clip-rule="evenodd" d="M215.616 60.416L231.695 55.6074L232.919 60.1045C235.174 63.4671 236.677 63.9063 237.639 67.6315C237.971 69.7035 238.149 70.213 235.834 73.2251L231.322 77.8518C229.429 82.0808 228.626 85.3624 224.883 90.3605C221.73 93.3114 219.833 95.2416 217.612 95.716C216.016 96.0568 213.104 96.6955 211.468 95.3921C209.904 94.0311 209.034 92.8085 209.275 89.8592C211.521 82.7436 213.73 79.1865 216.189 72.1893C216.388 70.4009 216.517 70.3278 216.438 68.6028L215.616 60.416Z" fill="#5D9FC9"/>
<path fill-rule="evenodd" clip-rule="evenodd" d="M237.522 70.6516C238.105 67.0947 238.148 67.421 234.462 62.1628C230.766 63.9892 230.584 64.2691 227.712 67.2172C228.057 68.8258 228.121 70.6109 228.604 72.0316C229.325 74.1557 230.21 75.4011 231.322 77.8518L235.834 73.225L237.522 70.6516Z" fill="#336699"/>
<path fill-rule="evenodd" clip-rule="evenodd" d="M215.973 63.9725L215.751 61.7638C221.845 61.359 225.053 60.4017 232.307 57.856L232.747 59.4733C227.156 61.5254 221.845 62.887 215.973 63.9725Z" fill="#336699"/>
<path fill-rule="evenodd" clip-rule="evenodd" d="M216.264 66.8715L216.083 65.0663C222.177 64.6614 226.048 63.2048 233.302 60.6593L234.085 61.697C228.493 64.716 222.83 66.0623 216.264 66.8715Z" fill="#336699"/>
<path fill-rule="evenodd" clip-rule="evenodd" d="M215.739 73.4389L216.449 69.9713C220.658 77.1998 223.416 77.5555 230.933 78.7419L230.09 80.7745C223.833 81.0371 219.809 77.2998 215.739 73.4389Z" fill="#336699"/>
<path fill-rule="evenodd" clip-rule="evenodd" d="M214.316 77.0754L215.256 74.723C217.105 78.7056 221.479 82.1891 228.996 83.3754L228.097 85.2614C223.575 85.1787 217.135 81.2813 214.316 77.0754Z" fill="#336699"/>
<path fill-rule="evenodd" clip-rule="evenodd" d="M212.823 80.5836L213.783 78.3472C215.632 82.3298 219.22 86.4739 226.737 87.6602L225.662 89.2844C221.141 89.2017 215.434 85.273 212.823 80.5836Z" fill="#336699"/>
<path fill-rule="evenodd" clip-rule="evenodd" d="M211.036 84.8776L211.941 82.6519C213.79 86.6347 216.418 90.0638 223.935 91.2504L222.313 92.7552C219.11 92.6727 213.232 88.8764 211.036 84.8776Z" fill="#336699"/>
<path fill-rule="evenodd" clip-rule="evenodd" d="M211.468 95.3921C208.282 91.0527 209.066 91.4894 210.451 86.4166C213.005 90.7085 213.267 91.8418 221.112 93.7561C218.138 96.1982 215.753 96.0623 214.22 96.2015C213.406 96.2757 212.532 95.7511 211.468 95.3921Z" fill="#336699"/>
<path fill-rule="evenodd" clip-rule="evenodd" d="M215.182 60.4843C213.92 57.4523 213.833 55.7361 213.085 52.4883C212.998 52.109 212.968 52.1711 213.376 52.0898C217.058 51.3558 218.676 51.3542 221.845 50.4535C224.616 49.6657 225.34 49.847 229.45 48.6159C230.084 48.4255 229.945 48.3511 230.228 48.9452C231.435 51.4734 231.94 52.8207 232.206 55.3409C225.84 58.6964 222.579 59.3229 215.182 60.4843Z" fill="#336699"/>
<path fill-rule="evenodd" clip-rule="evenodd" d="M222.954 53.544L221.372 53.7755L218.391 45.7659C218.284 45.4777 218.332 45.5217 218.744 45.4445L222.19 44.8004C222.583 44.727 222.514 44.6941 222.528 44.9866L222.954 53.544Z" fill="#654333"/>
<path fill-rule="evenodd" clip-rule="evenodd" d="M301.321 52.2177L251 68.9468L246 102.039C250.923 103.776 251.361 105.308 255.719 102.039C259.516 99.1915 260.784 103.174 264.24 103.473C271.33 104.085 272.573 99.4077 274.574 100.006C278.149 101.075 279.957 103.219 284.924 96.7277C285.621 95.8182 292.654 101.57 295.657 92.2119C295.657 92.2119 304.326 94.3712 309.238 85.6471C310.883 82.7253 312.865 86.8873 318.953 81.8606C320.874 80.2749 321.259 75.9459 322.895 73.9289L301.321 52.2177Z" fill="#FF9966"/>
<path fill-rule="evenodd" clip-rule="evenodd" d="M282.999 32.3958L252.335 45.6458C252.335 62.3573 248.671 80.4599 252.335 72.3766C254.097 71.6509 255.293 75.9999 260.677 72.3766C261.586 71.7643 266.358 75.7167 270.135 70.5076C272.3 72.9899 280.401 71.3155 281.464 68.2009C282.255 65.8831 289.415 68.6467 290.614 63.4714C290.8 62.6636 292.562 64.4268 295.449 62.3573C298.301 60.3129 295.563 57.5035 297.322 57.1856C299.282 56.8313 302.748 59.3729 302.5 53.528L282.999 32.3958Z" fill="#FF9966"/>
<path fill-rule="evenodd" clip-rule="evenodd" d="M252.335 45.6458L252.598 40.0297C257.038 38.4187 261.15 37.362 265.102 35.8779C270.275 33.9346 274.982 32.4096 280.621 30.016L284.51 33.7332L270.837 47.314L252.335 45.6458Z" fill="#FF9966"/>
</svg>
