<svg width="183" height="48" viewBox="0 0 183 48" fill="none" xmlns="http://www.w3.org/2000/svg">
<path d="M3.36 7.4H14.4V41H3.36V7.4ZM24.72 7.4H37.008L23.904 23.144L37.728 41H24.96L11.376 23.48L24.72 7.4Z" fill="#669356"/>
<path d="M40.14 31.8C40.14 29.8 40.62 28.08 41.58 26.64C42.54 25.2 43.86 24.0933 45.54 23.32C47.22 22.5467 49.1267 22.16 51.26 22.16C53.3933 22.16 55.3 22.5467 56.98 23.32C58.66 24.0933 59.98 25.2 60.94 26.64C61.9 28.08 62.38 29.8 62.38 31.8C62.38 33.7733 61.9 35.48 60.94 36.92C59.98 38.36 58.66 39.4667 56.98 40.24C55.3 41.0133 53.3933 41.4 51.26 41.4C49.1267 41.4 47.22 41.0133 45.54 40.24C43.86 39.4667 42.54 38.36 41.58 36.92C40.62 35.48 40.14 33.7733 40.14 31.8ZM48.18 31.8C48.18 32.5467 48.3267 33.1733 48.62 33.68C48.9133 34.1867 49.2867 34.5733 49.74 34.84C50.22 35.08 50.7267 35.2 51.26 35.2C51.7933 35.2 52.2867 35.08 52.74 34.84C53.22 34.5733 53.6067 34.1867 53.9 33.68C54.1933 33.1733 54.34 32.5467 54.34 31.8C54.34 31.0533 54.1933 30.4267 53.9 29.92C53.6067 29.4133 53.22 29.0267 52.74 28.76C52.2867 28.4933 51.7933 28.36 51.26 28.36C50.7267 28.36 50.22 28.4933 49.74 28.76C49.2867 29.0267 48.9133 29.4133 48.62 29.92C48.3267 30.4267 48.18 31.0533 48.18 31.8ZM96.5884 29V41H88.7884V29.8C88.7884 28.9733 88.6684 28.3333 88.4284 27.88C88.1884 27.4 87.7618 27.16 87.1484 27.16C86.8284 27.16 86.5351 27.2533 86.2684 27.44C86.0018 27.6267 85.7884 27.92 85.6284 28.32C85.4684 28.6933 85.3884 29.1867 85.3884 29.8V41H77.5884V29.8C77.5884 28.9733 77.4684 28.3333 77.2284 27.88C76.9884 27.4 76.5618 27.16 75.9484 27.16C75.6284 27.16 75.3351 27.2533 75.0684 27.44C74.8018 27.6267 74.5884 27.92 74.4284 28.32C74.2684 28.6933 74.1884 29.1867 74.1884 29.8V41H66.7884V22.6H74.1884V25.36C74.6951 24.4 75.4018 23.6267 76.3084 23.04C77.2151 22.4533 78.3351 22.16 79.6684 22.16C81.1884 22.16 82.3484 22.4 83.1484 22.88C83.9751 23.3333 84.5618 24.0267 84.9084 24.96C85.6018 24.1067 86.4551 23.4267 87.4684 22.92C88.4818 22.4133 89.6151 22.16 90.8684 22.16C92.4151 22.16 93.5884 22.4267 94.3884 22.96C95.2151 23.4933 95.7884 24.2667 96.1084 25.28C96.4284 26.2933 96.5884 27.5333 96.5884 29ZM101.177 16.12C101.177 14.9467 101.591 14 102.417 13.28C103.271 12.56 104.297 12.2 105.497 12.2C106.697 12.2 107.711 12.56 108.537 13.28C109.391 14 109.817 14.9467 109.817 16.12C109.817 17.2933 109.391 18.24 108.537 18.96C107.711 19.68 106.697 20.04 105.497 20.04C104.297 20.04 103.271 19.68 102.417 18.96C101.591 18.24 101.177 17.2933 101.177 16.12ZM101.737 22.6H109.217V41H101.737V22.6ZM122.023 22.6V41H114.423V22.6H122.023ZM127.183 30.52C126.943 30.2 126.636 29.9333 126.263 29.72C125.889 29.5067 125.436 29.4 124.903 29.4C124.449 29.4 123.996 29.5333 123.543 29.8C123.089 30.0667 122.716 30.48 122.423 31.04C122.156 31.6 122.023 32.32 122.023 33.2L120.583 29.8C120.583 28.3333 120.889 27.0267 121.503 25.88C122.116 24.7333 122.916 23.8267 123.903 23.16C124.916 22.4667 125.983 22.12 127.103 22.12C127.769 22.12 128.409 22.2933 129.023 22.64C129.663 22.96 130.103 23.3467 130.343 23.8L127.183 30.52ZM133.748 9.8H141.148V41H133.748V9.8ZM147.788 22.6H156.948L149.148 30.2L157.748 41H148.748L139.988 30.2L147.788 22.6ZM167.994 35.2C167.994 35.5467 168.074 35.84 168.234 36.08C168.421 36.2933 168.647 36.4667 168.914 36.6C169.207 36.7067 169.514 36.76 169.834 36.76C170.341 36.76 170.821 36.6533 171.274 36.44C171.754 36.2 172.141 35.84 172.434 35.36C172.754 34.8533 172.914 34.2 172.914 33.4L173.554 35.8C173.554 36.9733 173.261 37.9867 172.674 38.84C172.087 39.6667 171.287 40.3067 170.274 40.76C169.261 41.1867 168.114 41.4 166.834 41.4C165.634 41.4 164.527 41.1867 163.514 40.76C162.501 40.3333 161.687 39.6933 161.074 38.84C160.461 37.96 160.154 36.8933 160.154 35.64C160.154 33.88 160.767 32.5067 161.994 31.52C163.247 30.5067 165.047 30 167.394 30C168.354 30 169.274 30.08 170.154 30.24C171.061 30.4 171.861 30.6267 172.554 30.92C173.274 31.1867 173.834 31.5333 174.234 31.96V35.12C173.781 34.72 173.167 34.4 172.394 34.16C171.647 33.92 170.874 33.8 170.074 33.8C169.567 33.8 169.154 33.8533 168.834 33.96C168.541 34.0667 168.327 34.2267 168.194 34.44C168.061 34.6267 167.994 34.88 167.994 35.2ZM163.954 29.08L161.594 24.04C162.874 23.5333 164.314 23.0667 165.914 22.64C167.541 22.2133 169.234 22 170.994 22C172.727 22 174.301 22.24 175.714 22.72C177.127 23.2 178.247 23.9067 179.074 24.84C179.901 25.7467 180.314 26.8667 180.314 28.2V41H172.914V30.12C172.914 29.7733 172.861 29.4533 172.754 29.16C172.647 28.8667 172.474 28.6133 172.234 28.4C171.994 28.16 171.674 27.9867 171.274 27.88C170.874 27.7467 170.394 27.68 169.834 27.68C169.087 27.68 168.301 27.7733 167.474 27.96C166.647 28.12 165.914 28.32 165.274 28.56C164.634 28.7733 164.194 28.9467 163.954 29.08Z" fill="#3E3E3E"/>
</svg>
