<svg width="38" height="38" viewBox="0 0 38 38" fill="none" xmlns="http://www.w3.org/2000/svg">
<g id="iconamoon:profile-thin">
<g id="Group">
<path id="Vector" d="M6.33325 32.5834C6.33325 30.5943 7.12343 28.6866 8.52995 27.2801C9.93647 25.8736 11.8441 25.0834 13.8333 25.0834H28.8333C30.8224 25.0834 32.73 25.8736 34.1366 27.2801C35.5431 28.6866 36.3333 30.5943 36.3333 32.5834C36.3333 33.5779 35.9382 34.5318 35.2349 35.235C34.5316 35.9383 33.5778 36.3334 32.5833 36.3334H10.0833C9.08869 36.3334 8.13486 35.9383 7.4316 35.235C6.72834 34.5318 6.33325 33.5779 6.33325 32.5834Z" stroke="#3E3E3E" stroke-width="2" stroke-linejoin="round"/>
<path id="Vector_2" d="M21.3333 17.5834C24.4399 17.5834 26.9583 15.065 26.9583 11.9584C26.9583 8.85177 24.4399 6.33337 21.3333 6.33337C18.2267 6.33337 15.7083 8.85177 15.7083 11.9584C15.7083 15.065 18.2267 17.5834 21.3333 17.5834Z" stroke="#3E3E3E" stroke-width="2"/>
</g>
</g>
</svg>
